<?xml version="1.0" standalone="no"?>
<!DOCTYPE svg PUBLIC "-//W3C//DTD SVG 20010904//EN"
 "http://www.w3.org/TR/2001/REC-SVG-20010904/DTD/svg10.dtd">
<svg version="1.0" xmlns="http://www.w3.org/2000/svg"
 width="268.000000pt" height="188.000000pt" viewBox="0 0 268.000000 188.000000"
 preserveAspectRatio="xMidYMid meet">
<metadata>
Created by potrace 1.16, written by Peter Selinger 2001-2019
</metadata>
<g transform="translate(0.000000,188.000000) scale(0.100000,-0.100000)"
fill="#000000" stroke="none">
<path d="M1255 1478 c-219 -42 -384 -261 -361 -480 12 -119 63 -214 189 -355
68 -76 77 -92 86 -152 l6 -46 170 0 170 0 3 25 c8 75 16 91 89 176 155 180
188 255 181 412 -3 83 -8 107 -35 165 -44 92 -118 169 -207 212 -105 52 -185
64 -291 43z m167 -49 c208 -44 345 -239 316 -450 -12 -87 -47 -152 -140 -263
-89 -103 -128 -166 -128 -203 0 -23 -1 -23 -123 -23 l-123 0 -13 49 c-9 37
-29 68 -73 118 -137 155 -185 238 -194 345 -12 118 32 233 122 322 95 93 227
132 356 105z"/>
<path d="M1250 1371 c-87 -27 -172 -97 -205 -171 -15 -34 -16 -43 -5 -50 18
-11 38 -2 46 22 21 67 151 158 225 158 37 0 66 21 54 40 -7 11 -78 12 -115 1z"/>
<path d="M1164 1089 c-3 -6 10 -45 29 -87 50 -107 66 -178 74 -319 6 -122 13
-142 43 -123 32 20 -9 341 -55 430 l-16 31 26 -7 c16 -4 34 0 50 10 23 15 28
15 56 1 16 -9 39 -13 49 -10 24 8 24 12 -1 -55 -30 -79 -48 -190 -49 -302 0
-97 8 -120 34 -99 9 8 15 51 19 139 6 136 25 219 77 322 41 82 26 99 -52 59
l-41 -21 -28 21 c-35 26 -34 26 -69 1 -28 -20 -28 -20 -71 0 -51 23 -65 24
-75 9z"/>
<path d="M1174 365 c-12 -31 7 -35 171 -35 129 0 164 3 168 14 12 30 -16 36
-175 36 -129 0 -160 -3 -164 -15z"/>
</g>
</svg>
